<svg width="20" height="34" viewBox="0 0 20 34" fill="none" xmlns="http://www.w3.org/2000/svg">
<path fill-rule="evenodd" clip-rule="evenodd" d="M10 -1C10.2818 -1 10.552 -0.868304 10.7513 -0.633884C10.9506 -0.399463 11.0625 -0.0815206 11.0625 0.25V29.7325L17.7477 21.865C17.9473 21.6303 18.2178 21.4984 18.5 21.4984C18.7821 21.4984 19.0527 21.6303 19.2522 21.865C19.4518 22.0997 19.5638 22.4181 19.5638 22.75C19.5638 23.0819 19.4518 23.4003 19.2522 23.635L10.7522 33.635C10.6536 33.7514 10.5363 33.8438 10.4072 33.9068C10.2781 33.9698 10.1398 34.0022 10 34.0022C9.86024 34.0022 9.72186 33.9698 9.59278 33.9068C9.46369 33.8438 9.34645 33.7514 9.24775 33.635L0.747749 23.635C0.54824 23.4003 0.436157 23.0819 0.436157 22.75C0.436157 22.4181 0.54824 22.0997 0.747749 21.865C0.947258 21.6303 1.21785 21.4984 1.5 21.4984C1.78215 21.4984 2.05274 21.6303 2.25225 21.865L8.9375 29.7325V0.25C8.9375 -0.0815206 9.04944 -0.399463 9.2487 -0.633884C9.44796 -0.868304 9.71821 -1 10 -1Z" fill="white"/>
</svg>
