<svg width="42" height="45" viewBox="0 0 42 45" fill="none" xmlns="http://www.w3.org/2000/svg">
<path d="M21 0C9.45 0 0 9.92935 0 22.0652C0 34.2011 9.45 44.1304 21 44.1304C32.55 44.1304 42 34.2011 42 22.0652C42 9.92935 32.55 0 21 0ZM21 5.5163C29.715 5.5163 36.75 12.9082 36.75 22.0652C36.75 31.2223 29.715 38.6141 21 38.6141C12.285 38.6141 5.25 31.2223 5.25 22.0652C5.25 12.9082 12.285 5.5163 21 5.5163ZM18.375 11.0326V23.2788L19.215 23.9959L21.84 26.7541L23.625 28.8503L27.405 24.8785L25.41 23.003L23.625 21.1274V11.1429H18.375V11.0326Z" fill="white"/>
</svg>
