<svg width="42" height="38" viewBox="0 0 42 38" fill="none" xmlns="http://www.w3.org/2000/svg">
<path d="M10.5 0C7.6125 0 5.04 1.26875 3.0975 3.25462C1.2075 5.24049 0 7.94348 0 11.0326C0 14.0666 1.2075 16.7696 3.0975 18.8106L21 37.6212L38.9025 18.8106C40.7925 16.8247 42 14.1217 42 11.0326C42 7.99864 40.7925 5.29565 38.9025 3.25462C37.0125 1.26875 34.44 0 31.5 0C28.6125 0 26.04 1.26875 24.0975 3.25462C22.2075 5.24049 21 7.94348 21 11.0326C21 7.99864 19.7925 5.29565 17.9025 3.25462C16.0125 1.26875 13.44 0 10.5 0Z" fill="white"/>
</svg>
