<svg width="42" height="45" viewBox="0 0 42 45" fill="none" xmlns="http://www.w3.org/2000/svg">
<path d="M15.75 0C14.28 0 12.915 0.55163 11.97 1.54457C11.025 2.5375 10.5 3.97174 10.5 5.5163C10.5 7.06087 11.445 8.16413 11.97 9.48804C12.1275 9.81902 12.1275 10.3707 12.1275 11.0326H2.28882e-05V44.1304H12.1275C12.1275 43.4685 12.075 42.9168 11.97 42.5859C11.445 41.262 10.5 40.1587 10.5 38.6141C10.5 37.0696 11.025 35.6353 11.97 34.6424C12.915 33.6495 14.28 33.0978 15.75 33.0978C17.22 33.0978 18.585 33.6495 19.53 34.6424C20.475 35.6353 21 37.0696 21 38.6141C21 40.1587 20.055 41.262 19.53 42.5859C19.3725 42.9168 19.3725 43.4685 19.3725 44.1304H31.5V31.3878C32.13 31.3878 32.655 31.4429 32.97 31.5533C34.23 32.1049 35.28 33.0978 36.75 33.0978C38.22 33.0978 39.585 32.5462 40.53 31.5533C41.475 30.5603 42 29.1261 42 27.5815C42 26.037 41.475 24.6027 40.53 23.6098C39.585 22.6168 38.22 22.0652 36.75 22.0652C35.28 22.0652 34.23 23.0582 32.97 23.6098C32.655 23.7753 32.13 23.7753 31.5 23.7753V11.0326H19.3725C19.3725 10.3707 19.425 9.81902 19.53 9.48804C20.055 8.16413 21 7.06087 21 5.5163C21 3.97174 20.475 2.5375 19.53 1.54457C18.585 0.55163 17.22 0 15.75 0Z" fill="white"/>
</svg>
