<svg width="22" height="42" viewBox="0 0 22 42" fill="none" xmlns="http://www.w3.org/2000/svg">
<path fill-rule="evenodd" clip-rule="evenodd" d="M21.4813 1.14374C21.6268 1.28888 21.7422 1.4613 21.821 1.65113C21.8997 1.84096 21.9403 2.04446 21.9403 2.24999C21.9403 2.45551 21.8997 2.65901 21.821 2.84884C21.7422 3.03867 21.6268 3.21109 21.4813 3.35624L3.83437 21L21.4813 38.6437C21.7746 38.9371 21.9395 39.3351 21.9395 39.75C21.9395 40.1649 21.7746 40.5628 21.4813 40.8562C21.1879 41.1496 20.7899 41.3145 20.375 41.3145C19.9601 41.3145 19.5621 41.1496 19.2687 40.8562L0.51875 22.1062C0.37324 21.9611 0.257793 21.7887 0.179023 21.5988C0.100253 21.409 0.0597076 21.2055 0.0597076 21C0.0597076 20.7945 0.100253 20.591 0.179023 20.4011C0.257793 20.2113 0.37324 20.0389 0.51875 19.8937L19.2687 1.14374C19.4139 0.998226 19.5863 0.882779 19.7761 0.804009C19.966 0.725239 20.1695 0.684692 20.375 0.684692C20.5805 0.684692 20.784 0.725239 20.9739 0.804009C21.1637 0.882779 21.3361 0.998226 21.4813 1.14374Z" fill="#F77366"/>
</svg>
